mtllib House.mtl
# vertices
v -12 0 -12
v -12 0 4
v -12 16 4
v -12 16 -12
v 12 16 4
v 12 0 4
v 12 0 -12
v 12 16 -12
v -15 16 -12
v -15 16 7
v -12 18 4
v -12 18 -12
v 12 18 4
v 15 16 7
v 15 16 -12
v 12 18 -12
v -13 0 3
v -13 0 5
v -13 16 5
v -13 16 3
v -11 16 5
v -11 0 5
v -11 0 3
v -11 16 3
v 11 0 3
v 11 0 5
v 11 16 5
v 11 16 3
v 13 16 5
v 13 0 5
v 13 0 3
v 13 16 3
v -11 15 4
v -11 15 5
v -11 16 5
v -11 16 4
v 11 16 5
v 11 15 5
v 11 15 4
v 11 16 4
v -11 18 -11
v -11 18 -7
v -11 22 -7
v -11 22 -11
v -7 22 -7
v -7 18 -7
v -7 18 -11
v -7 22 -11
v -12 22 -12
v -12 22 -6
v -12 23 -6
v -12 23 -12
v -6 23 -6
v -6 22 -6
v -6 22 -12
v -6 23 -12
v -12 23 -12
v -12 23 -6
v -12 24 -6
v -12 24 -12
v -11 24 -6
v -11 23 -6
v -11 23 -12
v -11 24 -12
v -11 23 -12
v -11 23 -11
v -11 24 -11
v -11 24 -12
v -6 24 -11
v -6 23 -11
v -6 23 -12
v -6 24 -12
v -7 23 -11
v -7 23 -6
v -7 24 -6
v -7 24 -11
v -6 24 -6
v -6 23 -6
v -6 23 -11
v -6 24 -11
v -11 23 -7
v -11 23 -6
v -11 24 -6
v -11 24 -7
v -7 24 -6
v -7 23 -6
v -7 23 -7
v -7 24 -7
v -13 0 -12
v -13 0 -10
v -13 16 -10
v -13 16 -12
v -12 16 -10
v -12 0 -10
v -12 0 -12
v -12 16 -12
v 12 0 -12
v 12 0 -10
v 12 16 -10
v 12 16 -12
v 13 16 -10
v 13 0 -10
v 13 0 -12
v 13 16 -12
v -5 0 4
v -5 0 5
v -5 11 5
v -5 11 4
v -3 11 5
v -3 0 5
v -3 0 4
v -3 11 4
v 3 0 4
v 3 0 5
v 3 11 5
v 3 11 4
v 5 11 5
v 5 0 5
v 5 0 4
v 5 11 4
v -3 9 4
v -3 9 5
v -3 11 5
v -3 11 4
v 3 11 5
v 3 9 5
v 3 9 4
v 3 11 4

# texture coordinates
vt -12 -0
vt 4 -0
vt 4 16
vt -12 16
vt 12 16
vt 12 -0
vt -12 -4
vt 12 -4
vt 12 12
vt -12 12
vt -4 16
vt -4 -0
vt 7 -4
vt 4 -1.7763568e-15
vt -12 -1.7763568e-15
vt 12 7
vt -12 7
vt -15 3
vt 15 3
vt -12 -6
vt 12 -6
vt 12 10
vt -12 10
vt -15 32
vt 15 32
vt 12 36
vt -12 36
vt 12 -3.5527137e-15
vt -4 -3.5527137e-15
vt -7 -4
vt 3 -0
vt 5 -0
vt 5 16
vt 3 16
vt -11 16
vt -13 16
vt -13 -0
vt -11 -0
vt 11 -5
vt 13 -5
vt 13 -3
vt 11 -3
vt -11 -3
vt -13 -3
vt -13 -5
vt -11 -5
vt 11 -0
vt 13 -0
vt 13 16
vt 11 16
vt -3 16
vt -5 16
vt -5 -0
vt -3 -0
vt 4 15
vt 5 15
vt -11 15
vt 11 15
vt 11 -4
vt -11 -4
vt -5 15
vt -4 15
vt -11 18
vt -7 18
vt -7 22
vt -11 22
vt 7 7
vt 11 7
vt 11 11
vt 7 11
vt -7 11
vt -11 11
vt -11 7
vt -7 7
vt 7 18
vt 11 18
vt 11 22
vt 7 22
vt -12 22
vt -6 22
vt -6 23
vt -12 23
vt 6 6
vt 12 6
vt 6 12
vt -6 12
vt -12 6
vt -6 6
vt 6 22
vt 12 22
vt 12 23
vt 6 23
vt -6 24
vt -12 24
vt -11 24
vt -11 23
vt 11 6
vt 11 12
vt -11 12
vt -11 6
vt 11 23
vt 12 24
vt 11 24
vt 6 24
vt 6 11
vt -6 11
vt -7 24
vt -7 23
vt 7 6
vt -7 6
vt 7 23
vt 7 24
vt -10 -0
vt -10 16
vt 13 10
vt 13 12
vt -13 12
vt -13 10
vt 10 16
vt 10 -0
vt 5 11
vt 4 11
vt -3 11
vt -5 11
vt 3 -5
vt 5 -5
vt 5 -4
vt 3 -4
vt -3 -4
vt -5 -4
vt -5 -5
vt -3 -5
vt 3 11
vt -4 11
vt 4 9
vt 5 9
vt -3 9
vt 3 9
vt -5 9
vt -4 9

# normals
vn -1 0 -0
vn 0 0 1
vn 0 -1 -0
vn 0 1 -0
vn 0 0 -1
vn 1 0 -0
vn -0.554700196225229 0.8320502943378436 -0
vn 0 0.8320502943378437 0.5547001962252291
vn 0.554700196225229 0.8320502943378436 -0

o entity0_brush0
usemtl __TB_empty
f  1/1/1  2/2/1  3/3/1  4/4/1
usemtl __TB_empty
f  5/5/2  3/4/2  2/1/2  6/6/2
usemtl __TB_empty
f  6/7/3  2/8/3  1/9/3  7/10/3
usemtl __TB_empty
f  8/9/4  4/10/4  3/7/4  5/8/4
usemtl __TB_empty
f  7/1/5  1/6/5  4/5/5  8/4/5
usemtl __TB_empty
f  8/5/6  5/11/6  6/12/6  7/6/6

o entity0_brush1
usemtl __TB_empty
f  9/7/7  10/13/7  11/14/7  12/15/7
usemtl __TB_empty
f  13/16/8  11/17/8  10/18/8  14/19/8
usemtl __TB_empty
f  14/20/3  10/21/3  9/22/3  15/23/3
usemtl __TB_empty
f  16/9/4  12/10/4  11/7/4  13/8/4
usemtl __TB_empty
f  15/24/5  9/25/5  12/26/5  16/27/5
usemtl __TB_empty
f  16/28/9  13/29/9  14/30/9  15/8/9

o entity0_brush2
usemtl __TB_empty
f  17/31/1  18/32/1  19/33/1  20/34/1
usemtl __TB_empty
f  21/35/2  19/36/2  18/37/2  22/38/2
usemtl __TB_empty
f  22/39/3  18/40/3  17/41/3  23/42/3
usemtl __TB_empty
f  24/43/4  20/44/4  19/45/4  21/46/4
usemtl __TB_empty
f  23/47/5  17/48/5  20/49/5  24/50/5
usemtl __TB_empty
f  24/51/6  21/52/6  22/53/6  23/54/6

o entity0_brush3
usemtl __TB_empty
f  25/31/1  26/32/1  27/33/1  28/34/1
usemtl __TB_empty
f  29/49/2  27/50/2  26/47/2  30/48/2
usemtl __TB_empty
f  30/45/3  26/46/3  25/43/3  31/44/3
usemtl __TB_empty
f  32/41/4  28/42/4  27/39/4  29/40/4
usemtl __TB_empty
f  31/37/5  25/38/5  28/35/5  32/36/5
usemtl __TB_empty
f  32/51/6  29/52/6  30/53/6  31/54/6

o entity0_brush4
usemtl __TB_empty
f  33/55/1  34/56/1  35/33/1  36/3/1
usemtl __TB_empty
f  37/50/2  35/35/2  34/57/2  38/58/2
usemtl __TB_empty
f  38/46/3  34/39/3  33/59/3  39/60/3
usemtl __TB_empty
f  40/59/4  36/60/4  35/46/4  37/39/4
usemtl __TB_empty
f  39/57/5  33/58/5  36/50/5  40/35/5
usemtl __TB_empty
f  40/11/6  37/52/6  38/61/6  39/62/6

o entity0_brush5
usemtl __TB_empty
f  41/63/1  42/64/1  43/65/1  44/66/1
usemtl __TB_empty
f  45/65/2  43/66/2  42/63/2  46/64/2
usemtl __TB_empty
f  46/67/3  42/68/3  41/69/3  47/70/3
usemtl __TB_empty
f  48/71/4  44/72/4  43/73/4  45/74/4
usemtl __TB_empty
f  47/75/5  41/76/5  44/77/5  48/78/5
usemtl __TB_empty
f  48/77/6  45/78/6  46/75/6  47/76/6

o entity0_brush6
usemtl __TB_empty
f  49/79/1  50/80/1  51/81/1  52/82/1
usemtl __TB_empty
f  53/81/2  51/82/2  50/79/2  54/80/2
usemtl __TB_empty
f  54/83/3  50/84/3  49/9/3  55/85/3
usemtl __TB_empty
f  56/86/4  52/10/4  51/87/4  53/88/4
usemtl __TB_empty
f  55/89/5  49/90/5  52/91/5  56/92/5
usemtl __TB_empty
f  56/91/6  53/92/6  54/89/6  55/90/6

o entity0_brush7
usemtl __TB_empty
f  57/82/1  58/81/1  59/93/1  60/94/1
usemtl __TB_empty
f  61/95/2  59/94/2  58/82/2  62/96/2
usemtl __TB_empty
f  62/97/3  58/84/3  57/9/3  63/98/3
usemtl __TB_empty
f  64/99/4  60/10/4  59/87/4  61/100/4
usemtl __TB_empty
f  63/101/5  57/91/5  60/102/5  64/103/5
usemtl __TB_empty
f  64/102/6  61/104/6  62/92/6  63/91/6

o entity0_brush8
usemtl __TB_empty
f  65/82/1  66/96/1  67/95/1  68/94/1
usemtl __TB_empty
f  69/93/2  67/95/2  66/96/2  70/81/2
usemtl __TB_empty
f  70/105/3  66/69/3  65/98/3  71/85/3
usemtl __TB_empty
f  72/86/4  68/99/4  67/72/4  69/106/4
usemtl __TB_empty
f  71/92/5  65/101/5  68/103/5  72/104/5
usemtl __TB_empty
f  72/102/6  69/103/6  70/101/6  71/91/6

o entity0_brush9
usemtl __TB_empty
f  73/96/1  74/81/1  75/93/1  76/95/1
usemtl __TB_empty
f  77/93/2  75/107/2  74/108/2  78/81/2
usemtl __TB_empty
f  78/83/3  74/109/3  73/70/3  79/105/3
usemtl __TB_empty
f  80/106/4  76/71/4  75/110/4  77/88/4
usemtl __TB_empty
f  79/92/5  73/111/5  76/112/5  80/104/5
usemtl __TB_empty
f  80/103/6  77/104/6  78/92/6  79/101/6

o entity0_brush10
usemtl __TB_empty
f  81/108/1  82/81/1  83/93/1  84/107/1
usemtl __TB_empty
f  85/107/2  83/95/2  82/96/2  86/108/2
usemtl __TB_empty
f  86/109/3  82/97/3  81/68/3  87/67/3
usemtl __TB_empty
f  88/74/4  84/73/4  83/100/4  85/110/4
usemtl __TB_empty
f  87/111/5  81/101/5  84/103/5  88/112/5
usemtl __TB_empty
f  88/112/6  85/104/6  86/92/6  87/111/6

o entity0_brush11
usemtl __TB_empty
f  89/1/1  90/113/1  91/114/1  92/4/1
usemtl __TB_empty
f  93/4/2  91/36/2  90/37/2  94/1/2
usemtl __TB_empty
f  94/22/3  90/115/3  89/116/3  95/9/3
usemtl __TB_empty
f  96/10/4  92/117/4  91/118/4  93/23/4
usemtl __TB_empty
f  95/6/5  89/48/5  92/49/5  96/5/5
usemtl __TB_empty
f  96/5/6  93/119/6  94/120/6  95/6/6

o entity0_brush12
usemtl __TB_empty
f  97/1/1  98/113/1  99/114/1  100/4/1
usemtl __TB_empty
f  101/49/2  99/5/2  98/6/2  102/48/2
usemtl __TB_empty
f  102/118/3  98/23/3  97/10/3  103/117/3
usemtl __TB_empty
f  104/116/4  100/9/4  99/22/4  101/115/4
usemtl __TB_empty
f  103/37/5  97/1/5  100/4/5  104/36/5
usemtl __TB_empty
f  104/5/6  101/119/6  102/120/6  103/6/6

o entity0_brush13
usemtl __TB_empty
f  105/2/1  106/32/1  107/121/1  108/122/1
usemtl __TB_empty
f  109/123/2  107/124/2  106/53/2  110/54/2
usemtl __TB_empty
f  110/125/3  106/126/3  105/127/3  111/128/3
usemtl __TB_empty
f  112/129/4  108/130/4  107/131/4  109/132/4
usemtl __TB_empty
f  111/31/5  105/32/5  108/121/5  112/133/5
usemtl __TB_empty
f  112/134/6  109/124/6  110/53/6  111/12/6

o entity0_brush14
usemtl __TB_empty
f  113/2/1  114/32/1  115/121/1  116/122/1
usemtl __TB_empty
f  117/121/2  115/133/2  114/31/2  118/32/2
usemtl __TB_empty
f  118/131/3  114/132/3  113/129/3  119/130/3
usemtl __TB_empty
f  120/127/4  116/128/4  115/125/4  117/126/4
usemtl __TB_empty
f  119/53/5  113/54/5  116/123/5  120/124/5
usemtl __TB_empty
f  120/134/6  117/124/6  118/53/6  119/12/6

o entity0_brush15
usemtl __TB_empty
f  121/135/1  122/136/1  123/121/1  124/122/1
usemtl __TB_empty
f  125/133/2  123/123/2  122/137/2  126/138/2
usemtl __TB_empty
f  126/132/3  122/125/3  121/128/3  127/129/3
usemtl __TB_empty
f  128/128/4  124/129/4  123/132/4  125/125/4
usemtl __TB_empty
f  127/137/5  121/138/5  124/133/5  128/123/5
usemtl __TB_empty
f  128/134/6  125/124/6  126/139/6  127/140/6

